<?xml version="1.0" encoding="UTF-8" standalone="no"?>
<!-- Created with Inkscape (http://www.inkscape.org/) -->

<svg
   xmlns:dc="http://purl.org/dc/elements/1.1/"
   xmlns:cc="http://creativecommons.org/ns#"
   xmlns:rdf="http://www.w3.org/1999/02/22-rdf-syntax-ns#"
   xmlns:svg="http://www.w3.org/2000/svg"
   xmlns="http://www.w3.org/2000/svg"
   xmlns:sodipodi="http://sodipodi.sourceforge.net/DTD/sodipodi-0.dtd"
   xmlns:inkscape="http://www.inkscape.org/namespaces/inkscape"
   id="svg2816"
   version="1.1"
   inkscape:version="0.47 r22583"
   width="456"
   height="229"
   sodipodi:docname="WikiOtter.svg">
  <metadata
     id="metadata2822">
    <rdf:RDF>
      <cc:Work
         rdf:about="">
        <dc:format>image/svg+xml</dc:format>
        <dc:type
           rdf:resource="http://purl.org/dc/dcmitype/StillImage" />
        <dc:title />
      </cc:Work>
    </rdf:RDF>
  </metadata>
  <defs
     id="defs2820">
    <inkscape:perspective
       sodipodi:type="inkscape:persp3d"
       inkscape:vp_x="0 : 114.5 : 1"
       inkscape:vp_y="0 : 1000 : 0"
       inkscape:vp_z="456 : 114.5 : 1"
       inkscape:persp3d-origin="228 : 76.333333 : 1"
       id="perspective8" />
  </defs>
  <sodipodi:namedview
     pagecolor="#ffffff"
     bordercolor="#666666"
     borderopacity="1"
     objecttolerance="10"
     gridtolerance="10"
     guidetolerance="10"
     inkscape:pageopacity="0"
     inkscape:pageshadow="2"
     inkscape:window-width="741"
     inkscape:window-height="713"
     id="namedview2818"
     showgrid="false"
     inkscape:zoom="1.0305677"
     inkscape:cx="228"
     inkscape:cy="153.31356"
     inkscape:window-x="201"
     inkscape:window-y="132"
     inkscape:window-maximized="0"
     inkscape:current-layer="svg2816" />
  <path
     style="fill:#000000"
     d="m 14.757364,223.18942 c -0.306093,-0.9782 -2.125479,-2.11233 -1.266812,-2.97052 1.24042,-0.99272 2.056551,-2.81281 3.848357,-2.73035 6.186814,-1.09697 12.443406,-1.93471 18.739638,-1.73936 7.115601,-4.50458 13.980058,-9.43722 20.092371,-15.25268 1.519286,-1.37177 3.180197,-2.62664 4.03403,-4.54771 6.931552,-11.46684 13.794965,-23.0196 22.053624,-33.59768 4.875789,-13.73739 9.434351,-27.58469 13.658243,-41.53642 2.131216,-6.50892 4.196525,-13.16579 8.228085,-18.79946 6.19474,-9.261437 13.0401,-18.070765 19.30868,-27.284483 1.63461,-2.169069 2.97723,-4.604391 4.79629,-6.605255 14.04277,-11.646458 27.45431,-24.095349 42.29353,-34.747649 4.30631,-3.06451 8.91879,-5.864829 13.91554,-7.594402 7.45095,-1.379061 14.89761,-2.925652 22.35124,-4.200197 23.36124,3.055118 45.99728,9.792772 68.70571,15.848693 2.86788,0.892373 5.79494,1.486831 8.78757,1.751294 10.80592,1.428104 21.66248,2.856345 32.58516,2.558718 9.09387,-5.316956 16.61254,-12.867275 25.49256,-18.510795 6.3505,-3.985406 12.78994,-7.937432 18.2624,-13.115655 2.0999,-2.103764 5.04371,-2.971161 7.56742,-4.4540429 1.63169,-0.7702525 3.20329,-1.7917367 4.87115,-2.4108131 6.66161,0.078266 13.34341,0.016748 19.99245,0.1820808 2.81539,0.8683542 5.74086,1.5367476 8.48748,2.5300118 3.3691,2.9390274 6.61672,6.0279524 10.13615,8.7866514 5.74736,0.722365 11.53493,1.340962 17.25512,2.187346 3.16392,1.361081 6.32784,2.722161 9.49176,4.083242 1.42561,2.002092 2.85123,4.004184 4.27684,6.006276 -0.063,2.828493 0.1245,5.720734 -0.0925,8.510024 -1.95041,3.493819 -3.76483,7.093978 -5.79861,10.522601 -5.93695,5.536494 -11.9834,11.044384 -19.01844,15.171231 -2.23437,1.393786 -5.08784,1.332811 -7.44922,2.504418 -9.1597,3.972308 -15.82588,11.642718 -22.99169,18.323591 -2.24254,2.044046 -3.51685,4.896885 -5.31068,7.315747 -6.89093,10.414124 -13.82763,20.822067 -21.67219,30.551247 0,3.45976 0,6.91951 0,10.37927 4.06985,6.14987 9.5018,11.23193 14.46875,16.64159 2.12569,2.35322 4.51118,4.52595 6.47592,6.99099 1.72863,3.53319 3.45726,7.06638 5.18589,10.59957 -0.61018,4.21808 -1.83523,8.38553 -4.30839,11.90925 -0.70075,1.6066 -2.7239,1.74662 -4.083,2.62309 -1.39225,0.57144 -2.74308,1.4784 -4.16047,1.84626 -3.03924,-0.5783 -6.32534,-1.09875 -8.5787,-3.41063 -0.0609,-3.66783 0.11976,-7.39444 -0.0889,-11.02634 -1.65987,-3.77177 -4.30446,-7.01501 -7.59372,-9.49115 -1.27767,-1.52523 -3.40162,-1.3676 -5.15539,-1.94608 -6.0636,-1.30506 -11.77488,-3.76507 -17.41085,-6.29154 -3.54591,0 -7.09182,0 -10.63773,0 -0.99486,1.55973 -2.30329,3.02056 -3.11341,4.63854 0.0429,4.7605 -0.0858,9.55039 0.0644,14.29252 1.07278,2.84992 1.91843,5.81227 3.12989,8.59355 4.30956,6.49984 8.4927,13.11696 12.8813,19.54347 3.65966,2.81064 7.31931,5.62128 10.97896,8.43192 0.40159,1.55642 0.80317,3.11285 1.20476,4.66927 -1.02485,1.02484 -2.04969,2.04969 -3.07453,3.07454 -3.49107,-0.92287 -7.09505,-1.53129 -10.51506,-2.65203 -8.43221,-4.14783 -16.92708,-8.1973 -25.32015,-12.40656 -5.17511,-4.28569 -10.53266,-8.34965 -16.15734,-12.02936 -2.30471,-4.19064 -4.43563,-8.53214 -6.84835,-12.62903 -1.84932,-1.24412 -3.54024,-2.81578 -5.49058,-3.85102 -6.85128,-1.85173 -13.68398,-3.83793 -20.54682,-5.60602 -3.96882,-0.0233 -7.93765,-0.0466 -11.90647,-0.0699 -0.75247,0.8842 -1.87556,1.61488 -2.4,2.59353 0,2.93485 0,5.8697 0,8.80455 3.31421,3.06107 6.54342,6.24351 9.91028,9.2294 3.59948,1.77768 7.1513,3.69672 10.78004,5.38762 3.97432,0.77141 7.99733,1.39966 11.9416,2.25943 2.72325,1.59242 6.72647,2.55724 7.29525,6.13146 -0.0194,1.26142 0.65152,3.09928 -1.18156,3.20779 -4.74504,2.22509 -10.00813,2.77744 -15.10819,3.61271 -3.00444,1.23097 -5.96629,2.6694 -8.99677,3.77351 -3.21586,0 -6.43171,0 -9.64756,0 -15.3393,-10.44851 -31.04914,-20.47833 -45.05208,-32.72107 -2.55242,-2.22979 -5.76457,-3.51535 -8.61781,-5.31457 -2.35996,-1.28089 -4.6519,-2.80021 -7.05426,-3.93247 -12.34988,-0.44613 -24.69976,-0.89226 -37.04964,-1.33838 -10.51715,6.22779 -20.43779,13.41987 -30.29687,20.60995 -1.64082,1.95 -3.28163,3.89999 -4.92244,5.84999 0.0709,2.22666 -0.14157,4.53803 0.10625,6.71177 3.00478,4.74291 6.41444,9.27247 8.89375,14.31483 -1.16782,1.98666 -3.46741,2.90435 -5.27421,4.22964 -5.07526,0.0301 -10.15052,0.0603 -15.22578,0.0904 -2.11201,-1.57683 -4.39619,-2.99879 -6.40443,-4.66896 -2.037572,-3.61032 -4.075126,-7.22067 -6.112679,-10.83102 -2.285549,0.0689 -4.646454,-0.13496 -6.886326,0.0993 -11.74708,6.99339 -23.44438,14.09675 -35.210049,21.04138 -3.863444,1.24927 -7.699969,2.66281 -11.580061,3.81047 -8.420119,0.0163 -16.840239,0.0325 -25.260359,0.0488 -0.559121,-0.85333 -1.118241,-1.70665 -1.677362,-2.55998 z"
     id="path2828" />
</svg>
