<?xml version="1.0" encoding="UTF-8" standalone="no"?>
<!-- Created with Inkscape (http://www.inkscape.org/) -->

<svg
   xmlns:dc="http://purl.org/dc/elements/1.1/"
   xmlns:cc="http://creativecommons.org/ns#"
   xmlns:rdf="http://www.w3.org/1999/02/22-rdf-syntax-ns#"
   xmlns:svg="http://www.w3.org/2000/svg"
   xmlns="http://www.w3.org/2000/svg"
   xmlns:sodipodi="http://sodipodi.sourceforge.net/DTD/sodipodi-0.dtd"
   xmlns:inkscape="http://www.inkscape.org/namespaces/inkscape"
   id="svg2816"
   version="1.1"
   inkscape:version="0.92.4 (5da689c313, 2019-01-14)"
   width="400"
   height="200"
   sodipodi:docname="otter.svg">
  <metadata
     id="metadata2822">
    <rdf:RDF>
      <cc:Work
         rdf:about="">
        <dc:format>image/svg+xml</dc:format>
        <dc:type
           rdf:resource="http://purl.org/dc/dcmitype/StillImage" />
        <dc:title></dc:title>
      </cc:Work>
    </rdf:RDF>
  </metadata>
  <defs
     id="defs2820">
    <inkscape:perspective
       sodipodi:type="inkscape:persp3d"
       inkscape:vp_x="0 : 114.5 : 1"
       inkscape:vp_y="0 : 1000 : 0"
       inkscape:vp_z="456 : 114.5 : 1"
       inkscape:persp3d-origin="228 : 76.333333 : 1"
       id="perspective8" />
  </defs>
  <sodipodi:namedview
     pagecolor="#ffffff"
     bordercolor="#666666"
     borderopacity="1"
     objecttolerance="10"
     gridtolerance="10"
     guidetolerance="10"
     inkscape:pageopacity="0"
     inkscape:pageshadow="2"
     inkscape:window-width="1920"
     inkscape:window-height="1017"
     id="namedview2818"
     showgrid="false"
     inkscape:zoom="1.0305677"
     inkscape:cx="214.73763"
     inkscape:cy="150.06291"
     inkscape:window-x="-8"
     inkscape:window-y="-8"
     inkscape:window-maximized="1"
     inkscape:current-layer="svg2816"
     fit-margin-top="0"
     fit-margin-left="0"
     fit-margin-right="0"
     fit-margin-bottom="0" />
  <path
     style="fill:#000000;stroke-width:0.89888173"
     d="m 8.3200912,197.69891 c -0.2751414,-0.87929 -1.9105542,-1.89873 -1.1387141,-2.67014 1.1149908,-0.89234 1.848596,-2.52838 3.4592179,-2.45426 5.561214,-0.98605 11.18515,-1.73908 16.844718,-1.56348 6.396083,-4.04909 12.566419,-8.48295 18.060666,-13.71036 1.365658,-1.23306 2.85862,-2.36104 3.626115,-4.08785 6.230645,-10.30733 12.400042,-20.6919 19.823599,-30.20034 4.382759,-12.34829 8.480367,-24.79537 12.277145,-37.33633 1.915712,-5.850755 3.77218,-11.834494 7.396076,-16.898506 5.568339,-8.32493 11.721506,-16.243476 17.356216,-24.52552 1.46933,-1.949737 2.67618,-4.138802 4.3113,-5.937338 12.62279,-10.468791 24.67818,-21.658871 38.01689,-31.234028 3.87086,-2.754632 8.01693,-5.271789 12.50842,-6.826477 6.69753,-1.239609 13.39119,-2.629811 20.09112,-3.775476 20.999,2.74619 41.34611,8.802544 61.7583,14.2461 2.57789,0.802135 5.20897,1.336484 7.899,1.574203 9.71324,1.283701 19.472,2.56752 29.2902,2.299986 8.17431,-4.779309 14.93271,-11.566154 22.91479,-16.639013 5.70835,-3.582408 11.49665,-7.134812 16.41575,-11.7894224 1.88755,-1.891035 4.53369,-2.6707224 6.80221,-4.0036579 1.4667,-0.6923654 2.87938,-1.61055957 4.37859,-2.1670357 5.988,0.07035522 11.99415,0.01505585 17.97085,0.16366926 2.5307,0.78054753 5.16035,1.38135374 7.62924,2.27418154 3.02842,2.6418377 5.94765,5.418416 9.11119,7.8981602 5.1662,0.649321 10.36854,1.205366 15.51032,1.966165 2.84399,1.223451 5.68797,2.446901 8.53197,3.670352 1.28145,1.799644 2.56292,3.599288 3.84437,5.398928 -0.0566,2.542486 0.11191,5.142268 -0.0832,7.64951 -1.75319,3.140531 -3.38414,6.376649 -5.21227,9.458573 -5.33661,4.97665 -10.77166,9.927591 -17.09533,13.637141 -2.00843,1.252852 -4.57336,1.198038 -6.69596,2.251178 -8.23349,3.570637 -14.2256,10.465428 -20.66681,16.47074 -2.01578,1.837359 -3.16124,4.401716 -4.77367,6.575994 -6.19414,9.361062 -12.42941,18.716578 -19.48074,27.461963 0,3.10992 0,6.21983 0,9.32974 3.65831,5.52801 8.54099,10.09617 13.00569,14.95881 1.91075,2.11527 4.05502,4.06829 5.82109,6.28408 1.55383,3.17591 3.10766,6.35183 4.6615,9.52775 -0.54848,3.79156 -1.64965,7.5376 -3.87274,10.70501 -0.62988,1.44414 -2.44845,1.57 -3.67013,2.35785 -1.25147,0.51365 -2.4657,1.32891 -3.73977,1.65957 -2.73192,-0.51983 -5.68573,-0.98765 -7.71124,-3.06576 -0.0547,-3.29694 0.10765,-6.64672 -0.0799,-9.91137 -1.49202,-3.39038 -3.8692,-6.30566 -6.82585,-8.53142 -1.14848,-1.371 -3.05766,-1.22931 -4.63408,-1.7493 -5.45046,-1.17309 -10.58423,-3.38435 -15.6503,-5.65535 -3.18735,0 -6.37471,0 -9.56207,0 -0.89426,1.40202 -2.07038,2.71513 -2.79858,4.1695 0.0386,4.27913 -0.0771,8.58467 0.0579,12.84729 0.96429,2.56174 1.72444,5.22454 2.81339,7.72458 3.87379,5.84259 7.63394,11.7906 11.57877,17.56727 3.2896,2.52643 6.5792,5.05287 9.86879,7.5793 0.36098,1.39903 0.72195,2.79808 1.08294,4.19711 -0.92122,0.92122 -1.84243,1.84244 -2.76364,2.76366 -3.13806,-0.82956 -6.37761,-1.37645 -9.4518,-2.38386 -7.57956,-3.72841 -15.21545,-7.36841 -22.75982,-11.15203 -4.65181,-3.85233 -9.46762,-7.50536 -14.52354,-10.81297 -2.07166,-3.7669 -3.9871,-7.66939 -6.15585,-11.35201 -1.66232,-1.11832 -3.18226,-2.53105 -4.93539,-3.46161 -6.15849,-1.66449 -12.30027,-3.44984 -18.46915,-5.03915 -3.56751,-0.0209 -7.13501,-0.0419 -10.70251,-0.0628 -0.67639,0.79478 -1.68591,1.45158 -2.15732,2.33127 0,2.63809 0,5.27617 0,7.91425 2.97909,2.75154 5.88176,5.61218 8.90817,8.29614 3.23551,1.59792 6.42817,3.32292 9.68998,4.84283 3.57245,0.69341 7.18865,1.25813 10.73409,2.03096 2.44788,1.4314 6.04629,2.29866 6.55757,5.51147 -0.0175,1.13386 0.58563,2.78588 -1.06209,2.88341 -4.26523,2.0001 -8.99612,2.49659 -13.58047,3.24741 -2.70065,1.10649 -5.36299,2.39947 -8.08704,3.39193 -2.89068,0 -5.78134,0 -8.67202,0 -13.78821,-9.39197 -27.9095,-18.40759 -40.49648,-29.41237 -2.29433,-2.00431 -5.18168,-3.15988 -7.7464,-4.77717 -2.12132,-1.15136 -4.1815,-2.51705 -6.34095,-3.53482 -11.10107,-0.40102 -22.20216,-0.80204 -33.30324,-1.20305 -9.45367,5.59805 -18.37115,12.06287 -27.2333,18.52591 -1.47491,1.75282 -2.9498,3.50563 -4.42469,5.25845 0.0637,2.00151 -0.12725,4.07915 0.0955,6.03309 2.70094,4.26331 5.76581,8.33485 7.99443,12.86734 -1.04974,1.78576 -3.1168,2.61066 -4.74089,3.80195 -4.56206,0.027 -9.124122,0.0542 -13.686181,0.0813 -1.898446,-1.41738 -3.951654,-2.69556 -5.756824,-4.19684 -1.831537,-3.24525 -3.663057,-6.49053 -5.494576,-9.73581 -2.054438,0.062 -4.176612,-0.12131 -6.189992,0.0893 -10.559236,6.28623 -21.073725,12.67131 -31.64967,18.91372 -3.47278,1.12294 -6.921362,2.39354 -10.409106,3.42515 -7.56869,0.0147 -15.137382,0.0292 -22.7060747,0.0438 -0.5025838,-0.76705 -1.0051665,-1.53408 -1.5077501,-2.30112 z"
     id="path2828"
     inkscape:connector-curvature="0" />
</svg>
